<mxfile host="Electron" modified="2023-05-15T16:23:38.453Z" agent="Mozilla/5.0 (X11; Linux x86_64) AppleWebKit/537.36 (KHTML, like Gecko) draw.io/21.1.2 Chrome/106.0.5249.199 Electron/21.4.3 Safari/537.36" etag="z0Dxs7mXFuNCHshIDcs7" version="21.1.2" type="device">
  <diagram id="3228e29e-7158-1315-38df-8450db1d8a1d" name="Page-1">
    <mxGraphModel dx="1434" dy="875" grid="1" gridSize="10" guides="1" tooltips="1" connect="1" arrows="1" fold="1" page="1" pageScale="1" pageWidth="1169" pageHeight="827" background="none" math="0" shadow="0">
      <root>
        <mxCell id="0" />
        <mxCell id="1" parent="0" />
        <mxCell id="21532" value="" style="ellipse;fillColor=#F94144;opacity=60;strokeColor=none;html=1;fontColor=#FFFFFF;" parent="1" vertex="1">
          <mxGeometry x="179.5" y="18.5" width="500" height="500" as="geometry" />
        </mxCell>
        <mxCell id="21533" value="" style="ellipse;fillColor=#577590;opacity=60;strokeColor=none;html=1;fontColor=#FFFFFF;" parent="1" vertex="1">
          <mxGeometry x="489.5" y="18.5" width="500" height="500" as="geometry" />
        </mxCell>
        <mxCell id="LkgTlQ-h3fgjBfkMTa6D-21533" value="&lt;span style=&quot;font-size: 26px;&quot;&gt;IoT&lt;/span&gt;" style="text;fontSize=26;align=center;verticalAlign=middle;html=1;fontColor=#FFFFFF;fontFamily=Helvetica;fontStyle=1" parent="1" vertex="1">
          <mxGeometry x="334.5" y="18.5" width="190" height="70" as="geometry" />
        </mxCell>
        <mxCell id="LkgTlQ-h3fgjBfkMTa6D-21534" value="&lt;span&gt;&lt;font style=&quot;font-size: 44px;&quot;&gt;IIoT&lt;/font&gt;&lt;/span&gt;" style="text;align=center;html=1;fontColor=#FFFFFF;fontSize=16;strokeColor=none;fontStyle=1;fontFamily=Helvetica;" parent="1" vertex="1">
          <mxGeometry x="544" y="110" width="80.5" height="60" as="geometry" />
        </mxCell>
        <mxCell id="LkgTlQ-h3fgjBfkMTa6D-21535" value="Mudanças dinâmicas" style="ellipse;whiteSpace=wrap;html=1;strokeColor=#F94144;fontSize=18;fontFamily=Garamond;" parent="1" vertex="1">
          <mxGeometry x="270" y="110" width="125.5" height="61.5" as="geometry" />
        </mxCell>
        <mxCell id="LkgTlQ-h3fgjBfkMTa6D-21536" value="&lt;span style=&quot;font-size: 26px;&quot;&gt;Indústria&lt;/span&gt;" style="text;fontSize=26;align=center;verticalAlign=middle;html=1;fontColor=#FFFFFF;fontFamily=Helvetica;fontStyle=1" parent="1" vertex="1">
          <mxGeometry x="644.5" y="18.5" width="190" height="70" as="geometry" />
        </mxCell>
        <mxCell id="LkgTlQ-h3fgjBfkMTa6D-21537" value="Grandes escalas" style="ellipse;whiteSpace=wrap;html=1;strokeColor=#F94144;fontSize=18;fontFamily=Garamond;" parent="1" vertex="1">
          <mxGeometry x="230" y="160" width="125.5" height="61.5" as="geometry" />
        </mxCell>
        <mxCell id="LkgTlQ-h3fgjBfkMTa6D-21539" value="Baixo custo" style="ellipse;whiteSpace=wrap;html=1;strokeColor=#F94144;fontSize=18;fontFamily=Garamond;" parent="1" vertex="1">
          <mxGeometry x="369.5" y="270" width="110.5" height="60" as="geometry" />
        </mxCell>
        <mxCell id="LkgTlQ-h3fgjBfkMTa6D-21538" value="Centro de segurança nos dados pessoais" style="ellipse;whiteSpace=wrap;html=1;strokeColor=#F94144;fontSize=18;fontFamily=Garamond;" parent="1" vertex="1">
          <mxGeometry x="270" y="200" width="170" height="90" as="geometry" />
        </mxCell>
        <mxCell id="LkgTlQ-h3fgjBfkMTa6D-21540" value="Aumento na área de automação" style="ellipse;whiteSpace=wrap;html=1;strokeColor=#F94144;fontSize=18;fontFamily=Garamond;" parent="1" vertex="1">
          <mxGeometry x="200" y="270" width="180" height="70" as="geometry" />
        </mxCell>
        <mxCell id="LkgTlQ-h3fgjBfkMTa6D-21541" value="Acessibilidade" style="ellipse;whiteSpace=wrap;html=1;strokeColor=#F94144;fontSize=18;fontFamily=Garamond;" parent="1" vertex="1">
          <mxGeometry x="369.5" y="100" width="120" height="50" as="geometry" />
        </mxCell>
        <mxCell id="LkgTlQ-h3fgjBfkMTa6D-21542" value="Inteligência" style="ellipse;whiteSpace=wrap;html=1;strokeColor=#F94144;fontSize=18;fontFamily=Garamond;" parent="1" vertex="1">
          <mxGeometry x="260" y="360" width="155" height="76" as="geometry" />
        </mxCell>
        <mxCell id="LkgTlQ-h3fgjBfkMTa6D-21543" value="Cidades" style="ellipse;whiteSpace=wrap;html=1;strokeColor=#F94144;fontSize=18;fontFamily=Garamond;" parent="1" vertex="1">
          <mxGeometry x="292.5" y="430" width="90" height="40" as="geometry" />
        </mxCell>
        <mxCell id="LkgTlQ-h3fgjBfkMTa6D-21544" value="Energia" style="ellipse;whiteSpace=wrap;html=1;strokeColor=#F94144;fontSize=18;fontFamily=Garamond;" parent="1" vertex="1">
          <mxGeometry x="360" y="414" width="90" height="40" as="geometry" />
        </mxCell>
        <mxCell id="LkgTlQ-h3fgjBfkMTa6D-21545" value="Agricultura" style="ellipse;whiteSpace=wrap;html=1;strokeColor=#F94144;fontSize=18;fontFamily=Garamond;" parent="1" vertex="1">
          <mxGeometry x="360" y="340" width="97.5" height="42" as="geometry" />
        </mxCell>
        <mxCell id="LkgTlQ-h3fgjBfkMTa6D-21546" value="Construções" style="ellipse;whiteSpace=wrap;html=1;strokeColor=#F94144;fontSize=18;fontFamily=Garamond;" parent="1" vertex="1">
          <mxGeometry x="392" y="376.5" width="108" height="43" as="geometry" />
        </mxCell>
        <mxCell id="LkgTlQ-h3fgjBfkMTa6D-21548" value="&lt;span style=&quot;font-size: 19px;&quot;&gt;[...]&lt;/span&gt;" style="text;fontSize=19;align=center;verticalAlign=middle;html=1;fontColor=#FFFFFF;fontFamily=Helvetica;fontStyle=1" parent="1" vertex="1">
          <mxGeometry x="489.25" y="399" width="190" height="70" as="geometry" />
        </mxCell>
        <mxCell id="LkgTlQ-h3fgjBfkMTa6D-21549" value="Processos dinâmicas" style="ellipse;whiteSpace=wrap;html=1;strokeColor=#5E4E58;fontSize=18;fontFamily=Garamond;" parent="1" vertex="1">
          <mxGeometry x="510" y="180" width="125.5" height="61.5" as="geometry" />
        </mxCell>
        <mxCell id="LkgTlQ-h3fgjBfkMTa6D-21550" value="Custos maiores" style="ellipse;whiteSpace=wrap;html=1;strokeColor=#577590;fontSize=18;fontFamily=Garamond;" parent="1" vertex="1">
          <mxGeometry x="709" y="160" width="125.5" height="61.5" as="geometry" />
        </mxCell>
        <mxCell id="LkgTlQ-h3fgjBfkMTa6D-21551" value="H2M" style="ellipse;whiteSpace=wrap;html=1;strokeColor=#987e8e;fontSize=18;fontFamily=Garamond;" parent="1" vertex="1">
          <mxGeometry x="590" y="223.88" width="81" height="42.25" as="geometry" />
        </mxCell>
        <mxCell id="LkgTlQ-h3fgjBfkMTa6D-21552" value="Manutenção" style="ellipse;whiteSpace=wrap;html=1;strokeColor=#577590;fontSize=18;fontFamily=Garamond;" parent="1" vertex="1">
          <mxGeometry x="709" y="241.5" width="129.94" height="60" as="geometry" />
        </mxCell>
        <mxCell id="LkgTlQ-h3fgjBfkMTa6D-21553" value="Manufatura e produção" style="ellipse;whiteSpace=wrap;html=1;strokeColor=#577590;fontSize=18;fontFamily=Garamond;" parent="1" vertex="1">
          <mxGeometry x="690.5" y="101.5" width="144" height="68.5" as="geometry" />
        </mxCell>
        <mxCell id="LkgTlQ-h3fgjBfkMTa6D-21554" value="Qualidade" style="ellipse;whiteSpace=wrap;html=1;strokeColor=#577590;fontSize=18;fontFamily=Garamond;" parent="1" vertex="1">
          <mxGeometry x="800" y="140" width="100" height="50" as="geometry" />
        </mxCell>
        <mxCell id="LkgTlQ-h3fgjBfkMTa6D-21555" value="Segurança" style="ellipse;whiteSpace=wrap;html=1;strokeColor=#577590;fontSize=18;fontFamily=Garamond;" parent="1" vertex="1">
          <mxGeometry x="760" y="210" width="100.25" height="42.25" as="geometry" />
        </mxCell>
        <mxCell id="LkgTlQ-h3fgjBfkMTa6D-21556" value="Integração entre sistemas e equipamentos" style="ellipse;whiteSpace=wrap;html=1;strokeColor=#577590;fontSize=18;fontFamily=Garamond;" parent="1" vertex="1">
          <mxGeometry x="760" y="286.5" width="160" height="90" as="geometry" />
        </mxCell>
        <mxCell id="LkgTlQ-h3fgjBfkMTa6D-21557" value="Eficiência" style="ellipse;whiteSpace=wrap;html=1;strokeColor=#577590;fontSize=18;fontFamily=Garamond;" parent="1" vertex="1">
          <mxGeometry x="688.97" y="336.5" width="101.06" height="40" as="geometry" />
        </mxCell>
        <mxCell id="LkgTlQ-h3fgjBfkMTa6D-21558" value="Produtividade" style="ellipse;whiteSpace=wrap;html=1;strokeColor=#577590;fontSize=18;fontFamily=Garamond;" parent="1" vertex="1">
          <mxGeometry x="723.44" y="366.5" width="126.56" height="50" as="geometry" />
        </mxCell>
        <mxCell id="LkgTlQ-h3fgjBfkMTa6D-21559" value="Transformação digital" style="ellipse;whiteSpace=wrap;html=1;strokeColor=#987e8e;fontSize=18;fontFamily=Garamond;" parent="1" vertex="1">
          <mxGeometry x="500" y="241.5" width="134.5" height="60" as="geometry" />
        </mxCell>
        <mxCell id="LkgTlQ-h3fgjBfkMTa6D-21560" value="Análise avançada dos dados" style="ellipse;whiteSpace=wrap;html=1;strokeColor=#987e8e;fontSize=18;fontFamily=Garamond;" parent="1" vertex="1">
          <mxGeometry x="524.5" y="296.5" width="139" height="70" as="geometry" />
        </mxCell>
        <mxCell id="LkgTlQ-h3fgjBfkMTa6D-21561" value="Cybersecurity" style="ellipse;whiteSpace=wrap;html=1;strokeColor=#987e8e;fontSize=18;fontFamily=Garamond;" parent="1" vertex="1">
          <mxGeometry x="531" y="364" width="108" height="50" as="geometry" />
        </mxCell>
        <mxCell id="NC7HE4Ybwl3dUYUQMyHD-21533" value="https://www.researchgate.net/figure/IoT-IIoT-Industry-40-attributes-and-the-common-concepts_fig1_339124137" style="text;html=1;align=center;verticalAlign=middle;resizable=0;points=[];autosize=1;strokeColor=none;fillColor=none;" parent="1" vertex="1">
          <mxGeometry x="292.5" y="540" width="610" height="30" as="geometry" />
        </mxCell>
      </root>
    </mxGraphModel>
  </diagram>
</mxfile>
